<?xml version="1.0" encoding="iso-8859-1"?>
<!-- Uploaded to: SVG Repo, www.svgrepo.com, Generator: SVG Repo Mixer Tools -->
<svg height="800px" width="800px" version="1.1" id="Layer_1" xmlns="http://www.w3.org/2000/svg" xmlns:xlink="http://www.w3.org/1999/xlink" 
	 viewBox="0 0 512 512" xml:space="preserve">
<path style="fill:#DC4161;" d="M186.182,81.455c0,16.358-4.224,42.573-7.582,60.828c-1.975,10.732,6.252,20.627,17.164,20.627
	h13.691c0,0,23.273-54.303,23.273-81.455H186.182z"/>
<path style="fill:#C5142C;" d="M221.091,81.455c0,27.151-23.273,81.455-23.273,81.455h11.636c0,0,23.273-54.303,23.273-81.455
	H221.091z"/>
<path style="fill:#DC4161;" d="M154.182,66.909c-11.228,0-20.364-9.136-20.364-20.364s9.136-20.364,20.364-20.364
	c4.821,0,8.727,3.907,8.727,8.727s0,18.453,0,23.273S159.003,66.909,154.182,66.909z"/>
<path style="fill:#B4D8F1;" d="M151.273,512h209.455c19.28,0,34.909-15.629,34.909-34.909V255.387
	c0-15.009-2.419-29.918-7.166-44.157l-39.38-118.139h-69.818l-38.589,115.767c-4.752,14.255-18.092,23.87-33.118,23.87h-21.384
	c-38.559,0-69.818,31.259-69.818,69.818v174.545C116.364,496.371,131.994,512,151.273,512z"/>
<path style="fill:#98C8ED;" d="M388.471,211.23l-39.38-118.139h-34.909l39.38,118.139c4.746,14.238,7.166,29.148,7.166,44.156
	v221.704c0,19.28-15.629,34.909-34.909,34.909h34.909c19.28,0,34.909-15.629,34.909-34.909V255.387
	C395.636,240.378,393.217,225.468,388.471,211.23z"/>
<path style="fill:#E07188;" d="M384,75.636V17.455C384,7.815,376.185,0,366.545,0H162.909l-11.636,11.636v69.818l11.636,11.636
	h203.636C376.185,93.091,384,85.276,384,75.636z"/>
<path style="fill:#DC4161;" d="M366.545,0h-23.273c9.64,0,17.455,7.815,17.455,17.455v58.182c0,9.64-7.815,17.455-17.455,17.455
	h23.273c9.64,0,17.455-7.815,17.455-17.455V17.455C384,7.815,376.185,0,366.545,0z"/>
<path style="fill:#F8F8F9;" d="M325.818,465.455H186.182c-12.854,0-23.273-10.419-23.273-23.273V302.545
	c0-12.854,10.419-23.273,23.273-23.273h139.636c12.854,0,23.273,10.419,23.273,23.273v139.636
	C349.091,455.035,338.672,465.455,325.818,465.455z"/>
</svg>