<svg width="800" height="800" viewBox="0 0 800 800" fill="none" xmlns="http://www.w3.org/2000/svg">
<path d="M458.39 156.443C458.39 128.613 438.053 104.961 410.537 100.793C403.553 99.7357 396.45 99.7357 389.463 100.793C361.947 104.961 341.607 128.613 341.607 156.443V195.799C325.887 200.286 310.911 206.539 296.909 214.331L269.068 186.49C249.389 166.812 218.283 164.469 195.879 180.979C190.193 185.17 185.17 190.193 180.979 195.879C164.469 218.283 166.811 249.39 186.49 269.069L214.331 296.909C206.539 310.912 200.286 325.888 195.799 341.61H156.443C128.613 341.61 104.961 361.947 100.793 389.463C99.7357 396.45 99.7357 403.553 100.793 410.537C104.961 438.053 128.613 458.393 156.443 458.393H195.799C200.286 474.113 206.539 489.09 214.331 503.09L186.49 530.93C166.811 550.61 164.469 581.717 180.979 604.12C185.17 609.807 190.193 614.83 195.879 619.02C218.283 635.53 249.39 633.19 269.068 613.51L296.909 585.67C310.911 593.46 325.887 599.713 341.607 604.2V643.557C341.607 671.387 361.947 695.04 389.463 699.207C396.447 700.263 403.553 700.263 410.537 699.207C438.053 695.04 458.39 671.387 458.39 643.557V604.203C474.113 599.713 489.09 593.46 503.09 585.67L530.93 613.51C550.61 633.19 581.717 635.53 604.12 619.02C609.807 614.83 614.83 609.807 619.02 604.12C635.53 581.717 633.19 550.61 613.51 530.933L585.67 503.093C593.46 489.09 599.713 474.113 604.203 458.393H643.557C671.387 458.393 695.04 438.053 699.207 410.537C700.263 403.553 700.263 396.45 699.207 389.463C695.04 361.947 671.387 341.61 643.557 341.61H604.2C599.713 325.887 593.46 310.911 585.67 296.909L613.51 269.068C633.19 249.389 635.53 218.283 619.02 195.879C614.83 190.193 609.807 185.17 604.12 180.979C581.717 164.469 550.61 166.811 530.93 186.49L503.09 214.331C489.09 206.539 474.113 200.286 458.39 195.799V156.443Z" fill="#363853" fill-opacity="0.05" stroke="#363853" stroke-opacity="0.05" stroke-width="50" stroke-linecap="round" stroke-linejoin="round"/>
<path d="M316.667 400C316.667 353.977 353.977 316.667 400 316.667C446.023 316.667 483.333 353.977 483.333 400C483.333 446.023 446.023 483.333 400 483.333C353.977 483.333 316.667 446.023 316.667 400Z" fill="#363853" fill-opacity="0.05" stroke="#363853" stroke-opacity="0.05" stroke-width="50"/>
</svg>
